<?xml version='1.0' encoding='UTF-8'?>
<svg viewBox="0 -1.0001 16 16.0001" xmlns="http://www.w3.org/2000/svg" xmlns:xlink="http://www.w3.org/1999/xlink">
  <g transform="translate(0, 0)">
    <g transform="matrix(0.5, 0, 0, 0.5, 0, 0)">
      <g transform="translate(0.022, -1.9782)">
        <g transform="matrix(1.9973, 0, 0, 1.9973, 0, 0)">
          <g transform="matrix(0.5, 0, 0, 0.5, 0, 0)">
            <circle cx="16" cy="16" r="13" fill="#FFFFFF" fill-opacity="1" class="White" stroke="#1177D7" stroke-width="2px" stroke-miterlimit="10" stroke-opacity="1" />
          </g>
        </g>
      </g>
    </g>
  </g>
  <g transform="translate(0, 0)">
    <g transform="matrix(0.5, 0, 0, 0.5, 0, 0)">
      <g transform="translate(0.022, -1.9782)">
        <g transform="matrix(1.9973, 0, 0, 1.9973, 0, 0)">
          <g transform="matrix(0.5, 0, 0, 0.5, 0, 0)">
            <line x1="9" y1="12" x2="23" y2="12" fill="none" stroke="#1177D7" stroke-width="2px" stroke-miterlimit="10" stroke-opacity="1" />
          </g>
        </g>
      </g>
    </g>
  </g>
  <g transform="translate(0, 0)">
    <g transform="matrix(0.5, 0, 0, 0.5, 0, 0)">
      <g transform="translate(0.022, -1.9782)">
        <g transform="matrix(1.9973, 0, 0, 1.9973, 0, 0)">
          <g transform="matrix(0.5, 0, 0, 0.5, 0, 0)">
            <line x1="9" y1="21" x2="23" y2="21" fill="none" stroke="#1177D7" stroke-width="2px" stroke-miterlimit="10" stroke-opacity="1" />
          </g>
        </g>
      </g>
    </g>
  </g>
  <g transform="translate(0, 0)">
    <g transform="matrix(0.5, 0, 0, 0.5, 0, 0)">
      <g id="Layer_1" transform="translate(16, 13.9998)">
        <g id="List_1_">
          <path d="M13, 16L3, 16C2.5, 16 2, 15.6 2, 15L2, 1C2, 0.4 2.5, 0 3, 0L13, 0C13.6, 0 14, 0.4 14, 1L14, 15C14, 15.6 13.6, 16 13, 16z" fill="#1177D7" class="Blue" />
        </g>
      </g>
    </g>
  </g>
  <g transform="translate(0, 0)">
    <g transform="matrix(0.5, 0, 0, 0.5, 0, 0)">
      <g id="Layer_1" transform="translate(16, 13.9998)">
        <g id="List_1_">
          <rect x="4" y="2" width="8" height="12" rx="0" ry="0" fill="#FFFFFF" class="White" />
        </g>
      </g>
    </g>
  </g>
  <g transform="translate(0, 0)">
    <g transform="matrix(0.5, 0, 0, 0.5, 0, 0)">
      <g id="Layer_1" transform="translate(16, 13.9998)">
        <g id="List_1_">
          <rect x="6" y="4" width="4" height="2" rx="0" ry="0" fill="#1177D7" class="Blue" />
        </g>
      </g>
    </g>
  </g>
  <g transform="translate(0, 0)">
    <g transform="matrix(0.5, 0, 0, 0.5, 0, 0)">
      <g id="Layer_1" transform="translate(16, 13.9998)">
        <g id="List_1_">
          <rect x="6" y="8" width="4" height="2" rx="0" ry="0" fill="#1177D7" class="Blue" />
        </g>
      </g>
    </g>
  </g>
  <g transform="translate(0, 0)">
    <g transform="matrix(0.5, 0, 0, 0.5, 0, 0)">
      <g id="Layer_1" transform="translate(-4, 13.9998)">
        <g id="Bookmark_1_">
          <path d="M11, 0L5, 0C4.4, 0 4, 0.4 4, 1L4, 16L8, 12L12, 16L12, 1C12, 0.4 11.6, 0 11, 0z" fill="#D11C1C" class="Red" />
        </g>
      </g>
    </g>
  </g>
</svg>