<?xml version='1.0' encoding='UTF-8'?>
<svg viewBox="-1 -1 16 16" xmlns="http://www.w3.org/2000/svg" xmlns:xlink="http://www.w3.org/1999/xlink">
  <g transform="translate(0, 0)">
    <g transform="translate(0, 0)">
      <g transform="translate(0, 0)">
        <g transform="matrix(0.5, 0, 0, 0.5, 0, 0)">
          <g id="Layer_1" transform="translate(-2, -2)">
            <g id="DollarCircled">
              <path d="M13.9, 10C14, 10 14, 10 13.9, 10L14, 13.4C13.8, 13.3 13.7, 13.3 13.6, 13.2C13.2, 13 12.9, 12.8 12.7, 12.6C12.5, 12.3 12.3, 12 12.3, 11.7C12.3, 11.4 12.4, 11.1 12.5, 10.9C12.7, 10.7 12.8, 10.5 13.1, 10.4C13.4, 10.2 13.6, 10.1 13.9, 10zM17.4, 16.8C17, 16.5 16.6, 16.3 16, 16.1L16, 20C16, 20 16, 20 16.1, 20C16.4, 19.9 16.7, 19.9 17, 19.7C17.3, 19.5 17.5, 19.4 17.7, 19.1C17.9, 18.8 18, 18.5 18, 18.1C17.9, 17.5 17.8, 17.1 17.4, 16.8zM28, 15C28, 22.2 22.2, 28 15, 28C7.8, 28 2, 22.2 2, 15C2, 7.8 7.8, 2 15, 2C22.2, 2 28, 7.8 28, 15zM20, 17.8C20, 17.2 19.9, 16.6 19.7, 16.2C19.5, 15.8 19.2, 15.4 18.8, 15.1C18.4, 14.8 18, 14.6 17.6, 14.4C17.1, 14.2 16.7, 14.1 16.2, 14C16.1, 14 16.1, 14 16, 14L16, 10.2C16.2, 10.3 16.4, 10.4 16.6, 10.5C16.9, 10.7 17.1, 10.9 17.2, 11.2C17.3, 11.4 17.4, 11.7 17.5, 12.1L19.4, 12.1C19.3, 11.4 19.2, 10.8 19, 10.3C18.7, 9.8 18.4, 9.3 18, 9C17.6, 8.7 17.1, 8.5 16.5, 8.3C16.3, 8.3 16.2, 8.2 16, 8.2L16, 6L14, 6L14, 8C13.7, 8 13.4, 8.1 13.1, 8.2C12.6, 8.3 12.1, 8.6 11.7, 8.9C11.3, 9.2 10.9, 9.6 10.7, 10.1C10.4, 10.6 10.3, 11.2 10.3, 11.8C10.3, 12.7 10.5, 13.3 10.9, 13.8C11.3, 14.3 11.8, 14.7 12.3, 14.9C12.8, 15.2 13.4, 15.4 14.1, 15.5L14.1, 20C14.1, 20 14.1, 20 14.1, 20C13.7, 19.9 13.4, 19.8 13.1, 19.6C12.8, 19.4 12.6, 19.1 12.4, 18.8C12.1, 18.5 12, 18.3 12, 18L10.1, 18C10.2, 18.6 10.3, 19.2 10.5, 19.6C10.8, 20.2 11.1, 20.6 11.6, 21C12.1, 21.4 12.6, 21.6 13.2, 21.8C13.5, 21.9 13.8, 21.9 14.1, 22L14.1, 24L16.1, 24L16.1, 22C16.4, 22 16.6, 21.9 16.9, 21.9C17.5, 21.8 18, 21.5 18.5, 21.2C19, 20.9 19.4, 20.4 19.7, 19.9C19.9, 19.3 20, 18.6 20, 17.8z" fill="#039C23" class="Green" />
            </g>
          </g>
        </g>
      </g>
    </g>
  </g>
  <g transform="translate(0, 0)">
    <g transform="translate(0, 0)">
      <g transform="translate(0, 0)">
        <g transform="matrix(0.5, 0, 0, 0.5, 0, 0)">
          <g transform="translate(14, 14)">
            <g transform="matrix(0.5, 0, 0, 0.5, 0, 0)">
              <path d="M21.51, 6.49A10.85 10.85 0 0 0 16, 5A11 11 0 0 0 5, 16A10.85 10.85 0 0 0 6.49, 21.51A11 11 0 1 1 21.49, 6.51z" fill="#FFFFFF" fill-opacity="1" class="White" stroke="#727272" stroke-width="2px" stroke-miterlimit="10" stroke-opacity="1" />
            </g>
          </g>
        </g>
      </g>
    </g>
  </g>
  <g transform="translate(0, 0)">
    <g transform="translate(0, 0)">
      <g transform="translate(0, 0)">
        <g transform="matrix(0.5, 0, 0, 0.5, 0, 0)">
          <g transform="translate(14, 14)">
            <g transform="matrix(0.5, 0, 0, 0.5, 0, 0)">
              <path d="M23, 12A11.13 11.13 0 0 1 22.12, 16.33A11.29 11.29 0 0 1 19.12, 20.4A11 11 0 0 1 12, 23A10.67 10.67 0 0 1 9.33, 22.67A10.94 10.94 0 0 1 9.61, 16.4A11 11 0 0 1 20, 9A10.67 10.67 0 0 1 22.67, 9.33A10.67 10.67 0 0 1 23, 12z" fill="#FFFFFF" fill-opacity="1" class="White" stroke="#FFFFFF" stroke-width="2px" stroke-miterlimit="10" stroke-opacity="1" />
            </g>
          </g>
        </g>
      </g>
    </g>
  </g>
  <g transform="translate(0, 0)">
    <g transform="translate(0, 0)">
      <g transform="translate(0, 0)">
        <g transform="matrix(0.5, 0, 0, 0.5, 0, 0)">
          <g transform="translate(14, 14)">
            <g transform="matrix(0.5, 0, 0, 0.5, 0, 0)">
              <line x1="5.4" y1="16.4" x2="18.6" y2="16.4" fill="none" stroke="#727272" stroke-width="2px" stroke-miterlimit="10" stroke-opacity="1" />
            </g>
          </g>
        </g>
      </g>
    </g>
  </g>
  <g transform="translate(0, 0)">
    <g transform="translate(0, 0)">
      <g transform="translate(0, 0)">
        <g transform="matrix(0.5, 0, 0, 0.5, 0, 0)">
          <g transform="translate(14, 14)">
            <g transform="matrix(0.5, 0, 0, 0.5, 0, 0)">
              <line x1="5.4" y1="8.33" x2="18.6" y2="8.33" fill="none" stroke="#727272" stroke-width="2px" stroke-miterlimit="10" stroke-opacity="1" />
            </g>
          </g>
        </g>
      </g>
    </g>
  </g>
  <g transform="translate(0, 0)">
    <g transform="translate(0, 0)">
      <g transform="translate(0, 0)">
        <g transform="matrix(0.5, 0, 0, 0.5, 0, 0)">
          <g transform="translate(14, 14)">
            <g transform="matrix(0.5, 0, 0, 0.5, 0, 0)">
              <path d="M22.67, 9.33A10.67 10.67 0 0 0 20, 9A11 11 0 0 0 9.61, 16.4A10.94 10.94 0 0 0 9.33, 22.67A10.54 10.54 0 0 1 6.49, 21.51A10.85 10.85 0 0 1 5, 16A11 11 0 0 1 16, 5A10.85 10.85 0 0 1 21.51, 6.49A10.54 10.54 0 0 1 22.67, 9.33z" fill="#FFFFFF" fill-opacity="1" class="White" stroke="#FFFFFF" stroke-width="2px" stroke-miterlimit="10" stroke-opacity="1" />
            </g>
          </g>
        </g>
      </g>
    </g>
  </g>
  <g transform="translate(0, 0)">
    <g transform="translate(0, 0)">
      <g transform="translate(0, 0)">
        <g transform="matrix(0.5, 0, 0, 0.5, 0, 0)">
          <g transform="translate(14, 14)">
            <g transform="matrix(0.5, 0, 0, 0.5, 0, 0)">
              <path d="M27, 16A11 11 0 0 1 16, 27A10.85 10.85 0 0 1 10.49, 25.51A0 0 0 0 1 10.49, 25.51A10.76 10.76 0 0 1 6.49, 21.51A10.54 10.54 0 0 0 9.33, 22.67A10.94 10.94 0 0 1 9.61, 16.4A11 11 0 0 1 20, 9A10.67 10.67 0 0 1 22.67, 9.33A10.54 10.54 0 0 0 21.51, 6.49A10.76 10.76 0 0 1 25.51, 10.49L25.51, 10.49A10.85 10.85 0 0 1 27, 16z" fill="#727272" fill-opacity="1" class="Black" stroke="#727272" stroke-width="2px" stroke-miterlimit="10" stroke-opacity="1" />
            </g>
          </g>
        </g>
      </g>
    </g>
  </g>
  <g transform="translate(0, 0)">
    <g transform="translate(0, 0)">
      <g transform="translate(0, 0)">
        <g transform="matrix(0.5, 0, 0, 0.5, 0, 0)">
          <g transform="translate(14, 14)">
            <g transform="matrix(0.5, 0, 0, 0.5, 0, 0)">
              <line x1="9.4" y1="20.4" x2="22.6" y2="20.4" fill="none" stroke="#727272" stroke-width="2px" stroke-miterlimit="10" stroke-opacity="1" />
            </g>
          </g>
        </g>
      </g>
    </g>
  </g>
  <g transform="translate(0, 0)">
    <g transform="translate(0, 0)">
      <g transform="translate(0, 0)">
        <g transform="matrix(0.5, 0, 0, 0.5, 0, 0)">
          <g transform="translate(14, 14)">
            <g transform="matrix(0.5, 0, 0, 0.5, 0, 0)">
              <line x1="9.4" y1="12.33" x2="22.6" y2="12.33" fill="none" stroke="#727272" stroke-width="2px" stroke-miterlimit="10" stroke-opacity="1" />
            </g>
          </g>
        </g>
      </g>
    </g>
  </g>
  <g transform="translate(0, 0)">
    <g transform="translate(0, 0)">
      <g transform="translate(0, 0)">
        <g transform="matrix(0.5, 0, 0, 0.5, 0, 0)">
          <g transform="translate(14, 14)">
            <g transform="matrix(0.5, 0, 0, 0.5, 0, 0)">
              <path d="M31, 20A11 11 0 0 1 10.49, 25.51A0 0 0 0 1 10.49, 25.51A11 11 0 0 1 9, 20A10.76 10.76 0 0 1 9.61, 16.4A11 11 0 0 1 20, 9A11 11 0 0 1 25.5, 10.48L25.5, 10.48A11 11 0 0 1 31, 20z" fill="#FFFFFF" fill-opacity="1" class="White" stroke="#727272" stroke-width="2px" stroke-miterlimit="10" stroke-opacity="1" />
            </g>
          </g>
        </g>
      </g>
    </g>
  </g>
  <g transform="translate(0, 0)">
    <g transform="translate(0, 0)">
      <g transform="translate(0, 0)">
        <g transform="matrix(0.5, 0, 0, 0.5, 0, 0)">
          <g transform="translate(14, 14)">
            <g transform="matrix(0.5, 0, 0, 0.5, 0, 0)">
              <line x1="13.4" y1="24.4" x2="26.6" y2="24.4" fill="none" stroke="#727272" stroke-width="2px" stroke-miterlimit="10" stroke-opacity="1" />
            </g>
          </g>
        </g>
      </g>
    </g>
  </g>
  <g transform="translate(0, 0)">
    <g transform="translate(0, 0)">
      <g transform="translate(0, 0)">
        <g transform="matrix(0.5, 0, 0, 0.5, 0, 0)">
          <g transform="translate(14, 14)">
            <g transform="matrix(0.5, 0, 0, 0.5, 0, 0)">
              <line x1="13.4" y1="16.33" x2="26.6" y2="16.33" fill="none" stroke="#727272" stroke-width="2px" stroke-miterlimit="10" stroke-opacity="1" />
            </g>
          </g>
        </g>
      </g>
    </g>
  </g>
</svg>