<?xml version='1.0' encoding='UTF-8'?>
<svg viewBox="-1 -1 16 16" xmlns="http://www.w3.org/2000/svg" xmlns:xlink="http://www.w3.org/1999/xlink">
  <g transform="matrix(0.5, 0, 0, 0.5, 0, 0)">
    <defs tag="staticElement_id6296289">
      <style>.a{fill:none;}.b{fill:#507282;}.c{fill:#fff;}</style>
    </defs>
    <g transform="translate(0, 0)">
      <g transform="matrix(0.875, 0, 0, 0.875, 0, 0)">
        <path d="M32.1, 32.1L0.1, 32.1L0.1, 0.1L32.1, 0.1zM2.2, 4.7L2.2, 12.5A7.51 7.51 0 0 0 2.7, 15.1A7.65 7.65 0 0 0 9.9, 19.9L22.3, 19.9L22.3, 27.5L21.1, 27.5L21.1, 31.2L31.1, 31.2L31.1, 27.5L29.9, 27.5L29.9, 19.7A9.85 9.85 0 0 0 29.7, 18A7.74 7.74 0 0 0 22.2, 12.3L9.7, 12.3L9.7, 4.7L10.9, 4.7L10.9, 1L1, 1C1, 0.9 0.9, 1 0.9, 1.2L0.9, 4.7z" fill="none" class="a" transform="translate(-0.1, -0.1)" />
      </g>
    </g>
    <g transform="translate(0, 0)">
      <g transform="matrix(0.875, 0, 0, 0.875, 0, 0)">
        <path d="M2.2, 4.7L0.9, 4.7L0.9, 1.2C0.9, 1 0.9, 0.9 1.2, 0.9L11.1, 0.9L11.1, 4.6L9.9, 4.6L9.9, 12.2L22.4, 12.2A7.63 7.63 0 0 1 29.9, 17.9A8.81 8.81 0 0 1 30.1, 19.6L30.1, 27.4L31.3, 27.4L31.3, 31.1L21.3, 31.1L21.3, 27.4L22.5, 27.4L22.5, 19.8L10.1, 19.8A7.6 7.6 0 0 1 2.9, 15A7.51 7.51 0 0 1 2.4, 12.4L2.4, 5.2C2.2, 5.1 2.2, 4.9 2.2, 4.7zM25.1, 26.6L25.1, 20A2.84 2.84 0 0 0 22.2, 17.1L10, 17.1A4.1 4.1 0 0 1 8.9, 17A4.75 4.75 0 0 1 4.9, 12.2L4.9, 5.6L3.6, 5.6L3.6, 12.5A6 6 0 0 0 8.6, 18.3A15.06 15.06 0 0 0 11.6, 18.4L22.3, 18.4A1.35 1.35 0 0 1 23.5, 18.9A1.43 1.43 0 0 1 23.8, 20L23.8, 26.5A6.15 6.15 0 0 0 25.1, 26.6zM3.4, 1.8L2.2, 1.8L2.2, 3.9L3.4, 3.9zM22.4, 30.4L23.6, 30.4L23.6, 28.3L22.4, 28.3z" fill="#727272" class="Black" transform="translate(-0.1, -0.1)" />
      </g>
    </g>
    <g transform="translate(0, 0)">
      <g transform="matrix(0.875, 0, 0, 0.875, 0, 0)">
        <path d="M25.1, 26.6L23.8, 26.6L23.8, 20.1A2 2 0 0 0 23.5, 19A1.35 1.35 0 0 0 22.3, 18.5L11.6, 18.5C10.6, 18.5 9.6, 18.5 8.6, 18.4A6.09 6.09 0 0 1 3.6, 12.6C3.5, 10.4 3.6, 8.1 3.6, 5.9L3.6, 5.7L4.9, 5.7L4.9, 12.3A4.75 4.75 0 0 0 8.9, 17.1A3.75 3.75 0 0 0 10, 17.2L22.2, 17.2A2.84 2.84 0 0 1 25.1, 20.1L25.1, 26.6z" fill="#FFFFFF" class="White" transform="translate(-0.1, -0.1)" />
      </g>
    </g>
    <g transform="translate(0, 0)">
      <g transform="matrix(0.875, 0, 0, 0.875, 0, 0)">
        <path d="M3.4, 1.8L3.4, 3.9L2.2, 3.9L2.2, 1.8z" fill="#FFFFFF" class="White" transform="translate(-0.1, -0.1)" />
      </g>
    </g>
    <g transform="translate(0, 0)">
      <g transform="matrix(0.875, 0, 0, 0.875, 0, 0)">
        <path d="M22.4, 30.4L22.4, 28.3L23.6, 28.3L23.6, 30.4z" fill="#FFFFFF" class="White" transform="translate(-0.1, -0.1)" />
      </g>
    </g>
  </g>
</svg>