<?xml version='1.0' encoding='UTF-8'?>
<svg viewBox="0 0 16 16" xmlns="http://www.w3.org/2000/svg" xmlns:xlink="http://www.w3.org/1999/xlink">
  <g transform="matrix(0.5, 0, 0, 0.5, 0, 0)">
    <defs tag="staticElement_id20682694">
      <style>.a{fill:#0071bc;stroke:#0071bc;stroke-width:0.25px;}.a,.b{stroke-miterlimit:10;}.b{fill:none;stroke:#fff;stroke-width:0.5px;}.c{fill:#fff;}</style>
    </defs>
    <g transform="translate(0, 0)">
      <g transform="matrix(1.1429, 0, 0, 1.1429, 0, 0)">
        <g transform="translate(0, 0)">
          <g transform="matrix(0.875, 0, 0, 0.875, 0, 0)">
            <g transform="translate(-0.0001, -0.0001)">
              <g transform="matrix(1.1429, 0, 0, 1.1429, 0, 0)">
                <g transform="translate(0.3047, 0.3047)">
                  <g transform="matrix(0.8883, 0, 0, 0.8883, 0, 0)">
                    <circle cx="15.34" cy="15.34" r="15.22" fill="#1177D7" fill-opacity="1" class="Blue" stroke="#1177D7" stroke-width="0.25px" stroke-opacity="1" />
                  </g>
                </g>
              </g>
            </g>
          </g>
        </g>
      </g>
    </g>
    <g transform="translate(0, 0)">
      <g transform="matrix(1.1429, 0, 0, 1.1429, 0, 0)">
        <g transform="translate(0, 0)">
          <g transform="matrix(0.875, 0, 0, 0.875, 0, 0)">
            <g transform="translate(-0.0001, -0.0001)">
              <g transform="matrix(1.1429, 0, 0, 1.1429, 0, 0)">
                <g transform="translate(0.3047, 0.3047)">
                  <g transform="matrix(0.8883, 0, 0, 0.8883, 0, 0)">
                    <circle cx="15.34" cy="15.34" r="14.33" fill="#1177D7" fill-opacity="1" class="Blue" stroke="#1177D7" stroke-width="0.5px" stroke-opacity="1" />
                  </g>
                </g>
              </g>
            </g>
          </g>
        </g>
      </g>
    </g>
    <g transform="translate(0, 0)">
      <g transform="matrix(1.1429, 0, 0, 1.1429, 0, 0)">
        <g transform="translate(0, 0)">
          <g transform="matrix(0.875, 0, 0, 0.875, 0, 0)">
            <g transform="translate(-0.0001, -0.0001)">
              <g transform="matrix(1.1429, 0, 0, 1.1429, 0, 0)">
                <g transform="translate(0.3047, 0.3047)">
                  <g transform="matrix(0.8883, 0, 0, 0.8883, 0, 0)">
                    <path d="M4.13, 19.25L3, 12.51L3.5, 12.51L4, 15.83C4.15, 16.74 4.27, 17.56 4.36, 18.35L4.36, 18.35C4.46, 17.57 4.6, 16.72 4.75, 15.84L5.32, 12.51L5.79, 12.51L4.61, 19.25z" fill="#FFFFFF" class="White" />
                  </g>
                </g>
              </g>
            </g>
          </g>
        </g>
      </g>
    </g>
    <g transform="translate(0, 0)">
      <g transform="matrix(1.1429, 0, 0, 1.1429, 0, 0)">
        <g transform="translate(0, 0)">
          <g transform="matrix(0.875, 0, 0, 0.875, 0, 0)">
            <g transform="translate(-0.0001, -0.0001)">
              <g transform="matrix(1.1429, 0, 0, 1.1429, 0, 0)">
                <g transform="translate(0.3047, 0.3047)">
                  <g transform="matrix(0.8883, 0, 0, 0.8883, 0, 0)">
                    <path d="M8.62, 16.09L7.31, 16.09L7.31, 18.52L8.78, 18.52L8.78, 19.25L6.88, 19.25L6.88, 12.51L8.7, 12.51L8.7, 13.24L7.31, 13.24L7.31, 15.37L8.62, 15.37z" fill="#FFFFFF" class="White" />
                  </g>
                </g>
              </g>
            </g>
          </g>
        </g>
      </g>
    </g>
    <g transform="translate(0, 0)">
      <g transform="matrix(1.1429, 0, 0, 1.1429, 0, 0)">
        <g transform="translate(0, 0)">
          <g transform="matrix(0.875, 0, 0, 0.875, 0, 0)">
            <g transform="translate(-0.0001, -0.0001)">
              <g transform="matrix(1.1429, 0, 0, 1.1429, 0, 0)">
                <g transform="translate(0.3047, 0.3047)">
                  <g transform="matrix(0.8883, 0, 0, 0.8883, 0, 0)">
                    <path d="M10, 19.25L10, 12.51L10.47, 12.51L11.55, 15.92C11.8, 16.71 12, 17.42 12.16, 18.11L12.16, 18.11C12.16, 17.21 12.11, 16.39 12.11, 15.34L12.11, 12.51L12.52, 12.51L12.52, 19.25L12.08, 19.25L11.01, 15.83C10.77, 15.08 10.55, 14.31 10.38, 13.58L10.38, 13.58C10.38, 14.43 10.38, 15.24 10.38, 16.36L10.38, 19.24z" fill="#FFFFFF" class="White" />
                  </g>
                </g>
              </g>
            </g>
          </g>
        </g>
      </g>
    </g>
    <g transform="translate(0, 0)">
      <g transform="matrix(1.1429, 0, 0, 1.1429, 0, 0)">
        <g transform="translate(0, 0)">
          <g transform="matrix(0.875, 0, 0, 0.875, 0, 0)">
            <g transform="translate(-0.0001, -0.0001)">
              <g transform="matrix(1.1429, 0, 0, 1.1429, 0, 0)">
                <g transform="translate(0.3047, 0.3047)">
                  <g transform="matrix(0.8883, 0, 0, 0.8883, 0, 0)">
                    <path d="M14, 12.6A3.18 3.18 0 0 1 14.92, 12.46A1.46 1.46 0 0 1 16.29, 13.3A5.07 5.07 0 0 1 16.76, 15.72A6 6 0 0 1 16.28, 18.34A1.62 1.62 0 0 1 14.79, 19.34A3.56 3.56 0 0 1 14, 19.26zM14.43, 18.6A1.4 1.4 0 0 0 14.87, 18.65C15.8, 18.65 16.31, 17.65 16.31, 15.79C16.31, 14.2 15.86, 13.19 14.94, 13.19A1.33 1.33 0 0 0 14.43, 13.28z" fill="#FFFFFF" class="White" />
                  </g>
                </g>
              </g>
            </g>
          </g>
        </g>
      </g>
    </g>
    <g transform="translate(0, 0)">
      <g transform="matrix(1.1429, 0, 0, 1.1429, 0, 0)">
        <g transform="translate(0, 0)">
          <g transform="matrix(0.875, 0, 0, 0.875, 0, 0)">
            <g transform="translate(-0.0001, -0.0001)">
              <g transform="matrix(1.1429, 0, 0, 1.1429, 0, 0)">
                <g transform="translate(0.3047, 0.3047)">
                  <g transform="matrix(0.8883, 0, 0, 0.8883, 0, 0)">
                    <path d="M20.94, 15.81C20.94, 18.13 20.23, 19.36 19.37, 19.36C18.51, 19.36 17.86, 18 17.86, 15.94C17.86, 13.88 18.52, 12.4 19.42, 12.4C20.32, 12.4 20.94, 13.81 20.94, 15.81zM18.32, 15.92C18.32, 17.36 18.71, 18.65 19.4, 18.65C20.09, 18.65 20.48, 17.38 20.48, 15.85C20.48, 14.51 20.13, 13.11 19.4, 13.11C18.67, 13.11 18.32, 14.44 18.32, 15.92z" fill="#FFFFFF" class="White" />
                  </g>
                </g>
              </g>
            </g>
          </g>
        </g>
      </g>
    </g>
    <g transform="translate(0, 0)">
      <g transform="matrix(1.1429, 0, 0, 1.1429, 0, 0)">
        <g transform="translate(0, 0)">
          <g transform="matrix(0.875, 0, 0, 0.875, 0, 0)">
            <g transform="translate(-0.0001, -0.0001)">
              <g transform="matrix(1.1429, 0, 0, 1.1429, 0, 0)">
                <g transform="translate(0.3047, 0.3047)">
                  <g transform="matrix(0.8883, 0, 0, 0.8883, 0, 0)">
                    <path d="M22.2, 12.6A2.38 2.38 0 0 1 23.04, 12.46A1 1 0 0 1 24, 13A2.71 2.71 0 0 1 24.27, 14.28A2 2 0 0 1 23.64, 16L23.64, 16A2 2 0 0 1 24.14, 17.36C24.25, 18.3 24.33, 18.95 24.4, 19.21L24, 19.21A15.35 15.35 0 0 1 23.77, 17.6C23.67, 16.67 23.49, 16.32 23.1, 16.29L22.69, 16.29L22.69, 19.21L22.2, 19.21zM22.64, 15.67L23.08, 15.67C23.55, 15.67 23.84, 15.16 23.84, 14.39C23.84, 13.62 23.53, 13.14 23.07, 13.13A1 1 0 0 0 22.64, 13.21z" fill="#FFFFFF" class="White" />
                  </g>
                </g>
              </g>
            </g>
          </g>
        </g>
      </g>
    </g>
    <g transform="translate(0, 0)">
      <g transform="matrix(1.1429, 0, 0, 1.1429, 0, 0)">
        <g transform="translate(0, 0)">
          <g transform="matrix(0.875, 0, 0, 0.875, 0, 0)">
            <g transform="translate(-0.0001, -0.0001)">
              <g transform="matrix(1.1429, 0, 0, 1.1429, 0, 0)">
                <g transform="translate(0.3047, 0.3047)">
                  <g transform="matrix(0.8883, 0, 0, 0.8883, 0, 0)">
                    <path d="M25.53, 18.19A1.08 1.08 0 0 0 26.31, 18.63C26.76, 18.63 27.02, 18.16 27.02, 17.48A1.47 1.47 0 0 0 26.38, 16.14A2.13 2.13 0 0 1 25.49, 14.23C25.49, 13.18 25.93, 12.4 26.58, 12.4A1 1 0 0 1 27.33, 12.73L27.21, 13.44A0.91 0.91 0 0 0 26.57, 13.12C26.11, 13.12 25.93, 13.67 25.93, 14.12A1.44 1.44 0 0 0 26.6, 15.42A2.22 2.22 0 0 1 27.46, 17.42C27.46, 18.42 27.08, 19.36 26.28, 19.36A1.16 1.16 0 0 1 25.42, 18.93z" fill="#FFFFFF" class="White" />
                  </g>
                </g>
              </g>
            </g>
          </g>
        </g>
      </g>
    </g>
  </g>
</svg>