<?xml version='1.0' encoding='UTF-8'?>
<svg viewBox="0 0 16 16" xmlns="http://www.w3.org/2000/svg">
  <g transform="matrix(0.5215, 0, 0, 0.5215, 0, 0)">
    <defs>
      <style>.a{fill:#0071bc;stroke:#0071bc;stroke-width:0.25px;}.a,.b,.c{stroke-miterlimit:10;}.b{fill:none;}.b,.c{stroke:#fff;stroke-width:0.5px;}.c{fill:#fff;}</style>
    </defs>
    <circle cx="15.34" cy="15.34" r="15.22" fill="#0071bc" fill-opacity="1" class="Blue" stroke="#0071bc" stroke-width="0.25px" stroke-opacity="1" />
    <circle cx="15.34" cy="15.34" r="14.33" fill="none" class="b" />
    <path d="M5.58, 18.89L4.48, 10.47L5, 10.47L5.53, 14.62C5.67, 15.75 5.8, 16.78 5.89, 17.77L5.89, 17.77C5.98, 16.77 6.12, 15.77 6.27, 14.63L6.84, 10.47L7.31, 10.47L6.06, 18.89z" fill="#fff" fill-opacity="1" class="White" />
    <path d="M9.59, 14.94L8.28, 14.94L8.28, 17.94L9.74, 17.94L9.74, 18.85L7.85, 18.85L7.85, 10.47L9.67, 10.47L9.67, 11.38L8.28, 11.38L8.28, 14L9.59, 14z" fill="#fff" fill-opacity="1" class="White" />
    <path d="M10.52, 18.89L10.52, 10.47L11, 10.47L12.08, 14.73C12.33, 15.73 12.52, 16.6 12.68, 17.47L12.68, 17.47C12.68, 16.35 12.68, 15.32 12.68, 14.01L12.68, 10.47L13.09, 10.47L13.09, 18.89L12.65, 18.89L11.58, 14.62C11.35, 13.68 11.12, 12.72 10.95, 11.81L10.95, 11.81C10.95, 12.87 10.95, 13.88 10.95, 15.28L10.95, 18.88z" fill="#fff" fill-opacity="1" class="White" />
    <path d="M14, 10.58A2.6 2.6 0 0 1 14.92, 10.41A1.46 1.46 0 0 1 16.29, 11.46A7.66 7.66 0 0 1 16.76, 14.46A9.18 9.18 0 0 1 16.28, 17.73A1.65 1.65 0 0 1 14.82, 19A3 3 0 0 1 14.03, 18.9zM14.46, 18A1.14 1.14 0 0 0 14.9, 18.06C15.83, 18.06 16.34, 16.76 16.34, 14.49C16.34, 12.49 15.89, 11.24 14.97, 11.24A1.14 1.14 0 0 0 14.46, 11.35z" fill="#fff" fill-opacity="1" class="White" />
    <path d="M20.46, 14.59C20.46, 17.49 19.75, 19.03 18.89, 19.03C18.03, 19.03 17.37, 17.3 17.37, 14.75C17.37, 12.2 18.04, 10.33 18.94, 10.33C19.84, 10.33 20.46, 12.09 20.46, 14.59zM17.84, 14.73C17.84, 16.53 18.23, 18.14 18.91, 18.14C19.59, 18.14 20, 16.55 20, 14.64C20, 12.97 19.65, 11.22 18.93, 11.22C18.21, 11.22 17.84, 12.88 17.84, 14.73z" fill="#fff" fill-opacity="1" class="White" />
    <path d="M21.23, 10.58A2 2 0 0 1 22.07, 10.41A1 1 0 0 1 23.07, 11.09A4.12 4.12 0 0 1 23.34, 12.69A2.88 2.88 0 0 1 22.7, 14.84L22.7, 14.84A2.81 2.81 0 0 1 23.2, 16.54C23.31, 17.71 23.39, 18.54 23.46, 18.85L23, 18.85C22.94, 18.61 22.87, 17.85 22.77, 16.85C22.67, 15.85 22.49, 15.25 22.1, 15.21L21.69, 15.21L21.69, 18.86L21.25, 18.86zM21.67, 14.42L22.11, 14.42C22.58, 14.42 22.87, 13.78 22.87, 12.82C22.87, 11.86 22.56, 11.26 22.1, 11.24A0.79 0.79 0 0 0 21.67, 11.34z" fill="#fff" fill-opacity="1" class="White" />
    <path d="M24.08, 17.57A1 1 0 0 0 24.86, 18.12C25.3, 18.12 25.56, 17.53 25.56, 16.68A2.06 2.06 0 0 0 24.93, 15A2.93 2.93 0 0 1 24, 12.62C24, 11.31 24.43, 10.33 25.09, 10.33A0.91 0.91 0 0 1 25.83, 10.74L25.71, 11.63A0.85 0.85 0 0 0 25.07, 11.23C24.61, 11.23 24.44, 11.92 24.44, 12.49A1.94 1.94 0 0 0 25.11, 14.12A3.08 3.08 0 0 1 26, 16.59C26, 17.89 25.61, 19.02 24.82, 19.02A1.09 1.09 0 0 1 23.96, 18.48z" fill="#fff" fill-opacity="1" class="White" />
  </g>
</svg>