<?xml version='1.0' encoding='UTF-8'?>
<svg viewBox="-2 -2 32 32" xmlns="http://www.w3.org/2000/svg" xmlns:xlink="http://www.w3.org/1999/xlink">
  <g transform="translate(-1.9781, -1.9781)">
    <g transform="matrix(0.9986, 0, 0, 0.9986, 0, 0)">
      <circle cx="16" cy="16" r="13" fill="#FFFFFF" class="White" stroke="#727272" stroke-width="2px" stroke-miterlimit="10" />
    </g>
  </g>
  <g transform="translate(-1.9781, -1.9781)">
    <g transform="matrix(0.9986, 0, 0, 0.9986, 0, 0)">
      <line x1="9" y1="12" x2="23" y2="12" fill="none" stroke="#727272" stroke-width="2px" stroke-miterlimit="10" />
    </g>
  </g>
  <g transform="translate(-1.9781, -1.9781)">
    <g transform="matrix(0.9986, 0, 0, 0.9986, 0, 0)">
      <line x1="9" y1="21" x2="23" y2="21" fill="none" stroke="#727272" stroke-width="2px" stroke-miterlimit="10" />
    </g>
  </g>
  <g id="Layer_1" transform="translate(16, 14)">
    <g id="List_1_">
      <path d="M13, 16L3, 16C2.5, 16 2, 15.6 2, 15L2, 1C2, 0.4 2.5, 0 3, 0L13, 0C13.6, 0 14, 0.4 14, 1L14, 15C14, 15.6 13.6, 16 13, 16z" fill="#727272" class="Black" />
    </g>
  </g>
  <g id="Layer_1" transform="translate(16, 14)">
    <g id="List_1_">
      <rect x="4" y="2" width="8" height="12" rx="0" ry="0" fill="#FFFFFF" class="White" />
    </g>
  </g>
  <g id="Layer_1" transform="translate(16, 14)">
    <g id="List_1_">
      <rect x="6" y="4" width="4" height="2" rx="0" ry="0" fill="#727272" class="Black" />
    </g>
  </g>
  <g id="Layer_1" transform="translate(16, 14)">
    <g id="List_1_">
      <rect x="6" y="8" width="4" height="2" rx="0" ry="0" fill="#727272" class="Black" />
    </g>
  </g>
</svg>