<?xml version='1.0' encoding='UTF-8'?>
<svg viewBox="-2 -2.0061 32 32.0011" xmlns="http://www.w3.org/2000/svg" xmlns:xlink="http://www.w3.org/1999/xlink">
  <g transform="translate(-0.1464, -0.1465)">
    <g transform="matrix(1.7578, 0, 0, 1.7578, 0, 0)">
      <g transform="matrix(0.5, 0, 0, 0.5, 0, 0)">
        <path d="M21.51, 6.49A10.85 10.85 0 0 0 16, 5A11 11 0 0 0 5, 16A10.85 10.85 0 0 0 6.49, 21.51A11 11 0 1 1 21.49, 6.51z" fill="#FFFFFF" fill-opacity="1" class="White" stroke="#727272" stroke-width="2px" stroke-miterlimit="10" stroke-opacity="1" />
      </g>
    </g>
  </g>
  <g transform="translate(-0.1464, -0.1465)">
    <g transform="matrix(1.7578, 0, 0, 1.7578, 0, 0)">
      <g transform="matrix(0.5, 0, 0, 0.5, 0, 0)">
        <path d="M23, 12A11.13 11.13 0 0 1 22.12, 16.33A11.29 11.29 0 0 1 19.12, 20.4A11 11 0 0 1 12, 23A10.67 10.67 0 0 1 9.33, 22.67A10.94 10.94 0 0 1 9.61, 16.4A11 11 0 0 1 20, 9A10.67 10.67 0 0 1 22.67, 9.33A10.67 10.67 0 0 1 23, 12z" fill="#FFFFFF" fill-opacity="1" class="White" stroke="#727272" stroke-width="2px" stroke-miterlimit="10" stroke-opacity="1" />
      </g>
    </g>
  </g>
  <g transform="translate(-0.1464, -0.1465)">
    <g transform="matrix(1.7578, 0, 0, 1.7578, 0, 0)">
      <g transform="matrix(0.5, 0, 0, 0.5, 0, 0)">
        <line x1="5.4" y1="16.4" x2="18.6" y2="16.4" fill="none" stroke="#727272" stroke-width="2px" stroke-miterlimit="10" stroke-opacity="1" />
      </g>
    </g>
  </g>
  <g transform="translate(-0.1464, -0.1465)">
    <g transform="matrix(1.7578, 0, 0, 1.7578, 0, 0)">
      <g transform="matrix(0.5, 0, 0, 0.5, 0, 0)">
        <line x1="5.4" y1="8.33" x2="18.6" y2="8.33" fill="none" stroke="#727272" stroke-width="2px" stroke-miterlimit="10" stroke-opacity="1" />
      </g>
    </g>
  </g>
  <g transform="translate(-0.1464, -0.1465)">
    <g transform="matrix(1.7578, 0, 0, 1.7578, 0, 0)">
      <g transform="matrix(0.5, 0, 0, 0.5, 0, 0)">
        <path d="M22.67, 9.33A10.67 10.67 0 0 0 20, 9A11 11 0 0 0 9.61, 16.4A10.94 10.94 0 0 0 9.33, 22.67A10.54 10.54 0 0 1 6.49, 21.51A10.85 10.85 0 0 1 5, 16A11 11 0 0 1 16, 5A10.85 10.85 0 0 1 21.51, 6.49A10.54 10.54 0 0 1 22.67, 9.33z" fill="#FFFFFF" fill-opacity="1" class="White" stroke="#727272" stroke-width="2px" stroke-miterlimit="10" stroke-opacity="1" />
      </g>
    </g>
  </g>
  <g transform="translate(-0.1464, -0.1465)">
    <g transform="matrix(1.7578, 0, 0, 1.7578, 0, 0)">
      <g transform="matrix(0.5, 0, 0, 0.5, 0, 0)">
        <path d="M27, 16A11 11 0 0 1 16, 27A10.85 10.85 0 0 1 10.49, 25.51A0 0 0 0 1 10.49, 25.51A10.76 10.76 0 0 1 6.49, 21.51A10.54 10.54 0 0 0 9.33, 22.67A10.94 10.94 0 0 1 9.61, 16.4A11 11 0 0 1 20, 9A10.67 10.67 0 0 1 22.67, 9.33A10.54 10.54 0 0 0 21.51, 6.49A10.76 10.76 0 0 1 25.51, 10.49L25.51, 10.49A10.85 10.85 0 0 1 27, 16z" fill="#FFFFFF" fill-opacity="1" class="White" stroke="#727272" stroke-width="2px" stroke-miterlimit="10" stroke-opacity="1" />
      </g>
    </g>
  </g>
  <g transform="translate(-0.1464, -0.1465)">
    <g transform="matrix(1.7578, 0, 0, 1.7578, 0, 0)">
      <g transform="matrix(0.5, 0, 0, 0.5, 0, 0)">
        <line x1="9.4" y1="20.4" x2="22.6" y2="20.4" fill="none" stroke="#727272" stroke-width="2px" stroke-miterlimit="10" stroke-opacity="1" />
      </g>
    </g>
  </g>
  <g transform="translate(-0.1464, -0.1465)">
    <g transform="matrix(1.7578, 0, 0, 1.7578, 0, 0)">
      <g transform="matrix(0.5, 0, 0, 0.5, 0, 0)">
        <line x1="9.4" y1="12.33" x2="22.6" y2="12.33" fill="none" stroke="#727272" stroke-width="2px" stroke-miterlimit="10" stroke-opacity="1" />
      </g>
    </g>
  </g>
  <g transform="translate(-0.1464, -0.1465)">
    <g transform="matrix(1.7578, 0, 0, 1.7578, 0, 0)">
      <g transform="matrix(0.5, 0, 0, 0.5, 0, 0)">
        <path d="M31, 20A11 11 0 0 1 10.49, 25.51A0 0 0 0 1 10.49, 25.51A11 11 0 0 1 9, 20A10.76 10.76 0 0 1 9.61, 16.4A11 11 0 0 1 20, 9A11 11 0 0 1 25.5, 10.48L25.5, 10.48A11 11 0 0 1 31, 20z" fill="#FFFFFF" fill-opacity="1" class="White" stroke="#727272" stroke-width="2px" stroke-miterlimit="10" stroke-opacity="1" />
      </g>
    </g>
  </g>
  <g transform="translate(-0.1464, -0.1465)">
    <g transform="matrix(1.7578, 0, 0, 1.7578, 0, 0)">
      <g transform="matrix(0.5, 0, 0, 0.5, 0, 0)">
        <line x1="13.4" y1="24.4" x2="26.6" y2="24.4" fill="none" stroke="#727272" stroke-width="2px" stroke-miterlimit="10" stroke-opacity="1" />
      </g>
    </g>
  </g>
  <g transform="translate(-0.1464, -0.1465)">
    <g transform="matrix(1.7578, 0, 0, 1.7578, 0, 0)">
      <g transform="matrix(0.5, 0, 0, 0.5, 0, 0)">
        <line x1="13.4" y1="16.33" x2="26.6" y2="16.33" fill="none" stroke="#727272" stroke-width="2px" stroke-miterlimit="10" stroke-opacity="1" />
      </g>
    </g>
  </g>
  <g id="Layer_1" transform="translate(0, 13.9939)">
    <g id="EnvelopeClose">
      <path d="M15, 14L1, 14C0.4, 14 0, 13.6 0, 13L0, 3C0, 2.5 0.4, 2 1, 2L15, 2C15.6, 2 16, 2.5 16, 3L16, 13C16, 13.6 15.6, 14 15, 14z" fill="#FFB115" class="Yellow" />
    </g>
  </g>
  <g id="Layer_1" transform="translate(0, 13.9939)">
    <g id="EnvelopeClose">
      <polygon points="16,3.4 8,8 0,3.4 0,5.4 8,10 16,5.4  " fill="#FFFFFF" class="White" />
    </g>
  </g>
  <g id="Layer_1" transform="translate(0, 13.9939)">
    <g id="Check_2_">
      <path d="M0, 8L2, 6L6, 10L14, 2L16, 4L6, 14C6, 14 0, 7.9 0, 8z" fill="#039C23" class="Green" />
    </g>
  </g>
</svg>