<?xml version='1.0' encoding='UTF-8'?>
<svg viewBox="0 0 32 32" xmlns="http://www.w3.org/2000/svg" xmlns:xlink="http://www.w3.org/1999/xlink">
  <g id="Layer_1" transform="translate(0, 0)">
    <g id="Calculator">
      <path d="M29, 0L16, 0L16, 14L30, 14L30, 1C30, 0.5 29.5, 0 29, 0zM28, 8L18, 8L18, 6L28, 6L28, 8z" fill="#1177D7" class="Blue" />
    </g>
  </g>
  <g id="Layer_1" transform="translate(0, 0)">
    <g id="Calculator">
      <path d="M0, 29C0, 29.5 0.5, 30 1, 30L14, 30L14, 16L0, 16L0, 29zM2.8, 20.2L4.2, 18.8L7, 21.6L9.8, 18.8L11.2, 20.2L8.4, 23L11.2, 25.8L9.8, 27.2L7, 24.4L4.2, 27.2L2.8, 25.8L5.6, 23L2.8, 20.2z" fill="#1177D7" class="Blue" />
    </g>
  </g>
  <g id="Layer_1" transform="translate(0, 0)">
    <g id="Calculator">
      <path d="M0, 1L0, 14L14, 14L14, 0L1, 0C0.5, 0 0, 0.5 0, 1zM2, 6L6, 6L6, 2L8, 2L8, 6L12, 6L12, 8L8, 8L8, 12L6, 12L6, 8L2, 8L2, 6z" fill="#1177D7" class="Blue" />
    </g>
  </g>
  <g id="Layer_1" transform="translate(0, 0)">
    <g id="Calculator">
      <path d="M16, 16L16, 30L29, 30C29.5, 30 30, 29.5 30, 29L30, 16L16, 16zM28, 26L18, 26L18, 24L28, 24L28, 26zM28, 22L18, 22L18, 20L28, 20L28, 22z" fill="#FFB115" class="Yellow" />
    </g>
  </g>
  <g transform="translate(19, 19)">
    <g transform="translate(0, 0)">
      <g transform="matrix(0.5, 0, 0, 0.5, 0, 0)">
        <g transform="translate(-1.9781, -1.9781)">
          <g transform="matrix(0.9986, 0, 0, 0.9986, 0, 0)">
            <circle cx="16" cy="16" r="13" fill="#FFFFFF" fill-opacity="1" class="White" stroke="#727272" stroke-width="2px" stroke-miterlimit="10" stroke-opacity="1" />
          </g>
        </g>
      </g>
    </g>
  </g>
  <g transform="translate(19, 19)">
    <g transform="translate(0, 0)">
      <g transform="matrix(0.5, 0, 0, 0.5, 0, 0)">
        <g transform="translate(-1.9781, -1.9781)">
          <g transform="matrix(0.9986, 0, 0, 0.9986, 0, 0)">
            <line x1="9" y1="12" x2="23" y2="12" fill="#FFFFFF" fill-opacity="1" class="White" stroke="#727272" stroke-width="2px" stroke-miterlimit="10" stroke-opacity="1" />
          </g>
        </g>
      </g>
    </g>
  </g>
  <g transform="translate(19, 19)">
    <g transform="translate(0, 0)">
      <g transform="matrix(0.5, 0, 0, 0.5, 0, 0)">
        <g transform="translate(-1.9781, -1.9781)">
          <g transform="matrix(0.9986, 0, 0, 0.9986, 0, 0)">
            <line x1="9" y1="21" x2="23" y2="21" fill="#FFFFFF" fill-opacity="1" class="White" stroke="#727272" stroke-width="2px" stroke-miterlimit="10" stroke-opacity="1" />
          </g>
        </g>
      </g>
    </g>
  </g>
  <g id="Layer_1" transform="translate(-2, 16)">
    <g id="Bookmark_1_">
      <path d="M11, 0L5, 0C4.4, 0 4, 0.4 4, 1L4, 16L8, 12L12, 16L12, 1C12, 0.4 11.6, 0 11, 0z" fill="#D11C1C" class="Red" />
    </g>
  </g>
</svg>