<?xml version='1.0' encoding='UTF-8'?>
<svg viewBox="-2 -4 32 32" xmlns="http://www.w3.org/2000/svg" xmlns:xlink="http://www.w3.org/1999/xlink">
  <g id="Layer_1" transform="translate(-2, -4)">
    <g id="Table_2_">
      <g opacity="0.5" class="st1">
        <rect x="12" y="22" width="8" height="6" rx="0" ry="0" fill="#FFFFFF" opacity="0.5" class="White" />
      </g>
    </g>
  </g>
  <g id="Layer_1" transform="translate(-2, -4)">
    <g id="Table_2_">
      <g opacity="0.5" class="st1">
        <rect x="2" y="14" width="8" height="6" rx="0" ry="0" fill="#FFFFFF" opacity="0.5" class="White" />
      </g>
    </g>
  </g>
  <g id="Layer_1" transform="translate(-2, -4)">
    <g id="Table_2_">
      <g opacity="0.5" class="st1">
        <rect x="2" y="22" width="8" height="6" rx="0" ry="0" fill="#FFFFFF" opacity="0.5" class="White" />
      </g>
    </g>
  </g>
  <g id="Layer_1" transform="translate(-2, -4)">
    <g id="Table_2_">
      <g opacity="0.5" class="st1">
        <rect x="22" y="22" width="8" height="6" rx="0" ry="0" fill="#FFFFFF" opacity="0.5" class="White" />
      </g>
    </g>
  </g>
  <g id="Layer_1" transform="translate(-2, -4)">
    <g id="Table_2_">
      <g opacity="0.5" class="st1">
        <rect x="22" y="14" width="8" height="6" rx="0" ry="0" fill="#FFFFFF" opacity="0.5" class="White" />
      </g>
    </g>
  </g>
  <g id="Layer_1" transform="translate(-2, -4)">
    <g id="Table_2_">
      <g opacity="0.5" class="st1">
        <rect x="12" y="14" width="8" height="6" rx="0" ry="0" fill="#FFFFFF" opacity="0.5" class="White" />
      </g>
    </g>
  </g>
  <g id="Layer_1" transform="translate(-2, -4)">
    <g id="Table_2_">
      <rect x="2" y="4" width="28" height="8" rx="0" ry="0" fill="#039C23" class="Green" />
    </g>
  </g>
  <g id="Layer_1" transform="translate(-2, 12)">
    <g id="Bookmark_1_">
      <path d="M11, 0L5, 0C4.4, 0 4, 0.4 4, 1L4, 16L8, 12L12, 16L12, 1C12, 0.4 11.6, 0 11, 0z" fill="#D11C1C" class="Red" />
    </g>
  </g>
  <g transform="translate(14, 12)">
    <g transform="matrix(0.5, 0, 0, 0.5, 0, 0)">
      <circle cx="16" cy="16" r="13" fill="#FFFFFF" fill-opacity="1" class="White" stroke="#727272" stroke-width="2px" stroke-miterlimit="10" stroke-opacity="1" />
    </g>
  </g>
  <g transform="translate(14, 12)">
    <g transform="matrix(0.5, 0, 0, 0.5, 0, 0)">
      <line x1="9" y1="12" x2="23" y2="12" fill="none" stroke="#727272" stroke-width="2px" stroke-miterlimit="10" stroke-opacity="1" />
    </g>
  </g>
  <g transform="translate(14, 12)">
    <g transform="matrix(0.5, 0, 0, 0.5, 0, 0)">
      <line x1="9" y1="21" x2="23" y2="21" fill="none" stroke="#727272" stroke-width="2px" stroke-miterlimit="10" stroke-opacity="1" />
    </g>
  </g>
</svg>