<svg xmlns="http://www.w3.org/2000/svg" viewBox="0 0 32 32"><title>BO_Instruments</title><path d="M21.51,6.49A10.85,10.85,0,0,0,16,5,11,11,0,0,0,5,16a10.85,10.85,0,0,0,1.49,5.51,11,11,0,1,1,15-15Z" fill="#fff" stroke="#000" stroke-miterlimit="10" stroke-width="2"/><path d="M23,12a11.13,11.13,0,0,1-.88,4.33,11.29,11.29,0,0,1-3,4.07A11,11,0,0,1,12,23a10.67,10.67,0,0,1-2.67-.33,10.94,10.94,0,0,1,.28-6.27A11,11,0,0,1,20,9a10.67,10.67,0,0,1,2.67.33A10.67,10.67,0,0,1,23,12Z" fill="#fff" stroke="#000" stroke-miterlimit="10" stroke-width="2"/><line x1="5.4" y1="16.4" x2="18.6" y2="16.4" fill="none" stroke="#000" stroke-miterlimit="10" stroke-width="2"/><line x1="5.4" y1="8.33" x2="18.6" y2="8.33" fill="none" stroke="#000" stroke-miterlimit="10" stroke-width="2"/><path d="M22.67,9.33A10.67,10.67,0,0,0,20,9,11,11,0,0,0,9.61,16.4a10.94,10.94,0,0,0-.28,6.27,10.54,10.54,0,0,1-2.84-1.16A10.85,10.85,0,0,1,5,16,11,11,0,0,1,16,5a10.85,10.85,0,0,1,5.51,1.49A10.54,10.54,0,0,1,22.67,9.33Z" fill="#fff" stroke="#000" stroke-miterlimit="10" stroke-width="2"/><path d="M27,16A11,11,0,0,1,16,27a10.85,10.85,0,0,1-5.51-1.49,0,0,0,0,1,0,0,10.76,10.76,0,0,1-4-4,10.54,10.54,0,0,0,2.84,1.16,10.94,10.94,0,0,1,.28-6.27A11,11,0,0,1,20,9a10.67,10.67,0,0,1,2.67.33,10.54,10.54,0,0,0-1.16-2.84,10.76,10.76,0,0,1,4,4h0A10.85,10.85,0,0,1,27,16Z" fill="#fff" stroke="#000" stroke-miterlimit="10" stroke-width="2"/><line x1="9.4" y1="20.4" x2="22.6" y2="20.4" fill="none" stroke="#000" stroke-miterlimit="10" stroke-width="2"/><line x1="9.4" y1="12.33" x2="22.6" y2="12.33" fill="none" stroke="#000" stroke-miterlimit="10" stroke-width="2"/><path d="M31,20a11,11,0,0,1-20.51,5.51,0,0,0,0,1,0,0A11,11,0,0,1,9,20a10.76,10.76,0,0,1,.61-3.6A11,11,0,0,1,20,9a11,11,0,0,1,5.5,1.48h0A11,11,0,0,1,31,20Z" fill="#fff" stroke="#000" stroke-miterlimit="10" stroke-width="2"/><line x1="13.4" y1="24.4" x2="26.6" y2="24.4" fill="none" stroke="#000" stroke-miterlimit="10" stroke-width="2"/><line x1="13.4" y1="16.33" x2="26.6" y2="16.33" fill="none" stroke="#000" stroke-miterlimit="10" stroke-width="2"/></svg>