<svg xmlns="http://www.w3.org/2000/svg" viewBox="0 0 32 32"><title>BO_Instruments2</title><path d="M17.51,2.49a0,0,0,0,0,0,0A11,11,0,0,0,12,1,11,11,0,0,0,1.61,8.4a10.94,10.94,0,0,0-.28,6.27A10.65,10.65,0,0,0,2.48,17.5a0,0,0,0,0,0,0,11,11,0,1,0,15-15Zm1,15H5.5v-2h13Zm0-8H5.5v-2h13Z" fill="#fff" stroke="#000" stroke-miterlimit="10"/><rect x="5.5" y="7.5" width="13" height="2" fill="#377ab5" stroke="#377ab5" stroke-miterlimit="10"/><rect x="5.5" y="15.5" width="13" height="2" fill="#377ab5" stroke="#377ab5" stroke-miterlimit="10"/><path d="M21.51,6.49h0A11,11,0,0,0,16,5,11,11,0,0,0,5.61,12.4a10.94,10.94,0,0,0-.28,6.27A10.65,10.65,0,0,0,6.48,21.5a0,0,0,0,0,0,0,11,11,0,1,0,15-15Zm1,15H9.5v-2h13Zm0-8H9.5v-2h13Z" fill="#fff" stroke="#000" stroke-miterlimit="10"/><rect x="9.5" y="11.5" width="13" height="2" fill="#377ab5" stroke="#377ab5" stroke-miterlimit="10"/><rect x="9.5" y="19.5" width="13" height="2" fill="#377ab5" stroke="#377ab5" stroke-miterlimit="10"/><path d="M25.51,10.49h0A11,11,0,0,0,20,9,11,11,0,0,0,9.61,16.4a10.94,10.94,0,0,0-.28,6.27,10.65,10.65,0,0,0,1.15,2.83,0,0,0,0,0,0,0,11,11,0,1,0,15-15Zm1,15h-13v-2h13Zm0-8h-13v-2h13Z" fill="#fff" stroke="#000" stroke-miterlimit="10"/><rect x="13.5" y="15.5" width="13" height="2" fill="#377ab5" stroke="#377ab5" stroke-miterlimit="10"/><rect x="13.5" y="23.5" width="13" height="2" fill="#377ab5" stroke="#377ab5" stroke-miterlimit="10"/></svg>