<svg xmlns="http://www.w3.org/2000/svg" viewBox="0 0 32 32"><defs><style>.a{fill:none;}.b{fill:#507282;}.c{fill:#fff;}</style></defs><title>Pipe2</title><path class="a" d="M32.1,32.1H.1V.1h32ZM2.2,4.7v7.8a7.51,7.51,0,0,0,.5,2.6,7.65,7.65,0,0,0,7.2,4.8H22.3v7.6H21.1v3.7h10V27.5H29.9V19.7a9.85,9.85,0,0,0-.2-1.7,7.74,7.74,0,0,0-7.5-5.7H9.7V4.7h1.2V1H1c0-.1-.1,0-.1.2V4.7Z" transform="translate(-0.1 -0.1)"/><path class="b" d="M2.2,4.7H.9V1.2c0-.2,0-.3.3-.3h9.9V4.6H9.9v7.6H22.4a7.63,7.63,0,0,1,7.5,5.7,8.81,8.81,0,0,1,.2,1.7v7.8h1.2v3.7h-10V27.4h1.2V19.8H10.1A7.6,7.6,0,0,1,2.9,15a7.51,7.51,0,0,1-.5-2.6V5.2C2.2,5.1,2.2,4.9,2.2,4.7ZM25.1,26.6V20a2.84,2.84,0,0,0-2.9-2.9H10A4.1,4.1,0,0,1,8.9,17a4.75,4.75,0,0,1-4-4.8V5.6H3.6v6.9a6,6,0,0,0,5,5.8,15.06,15.06,0,0,0,3,.1H22.3a1.35,1.35,0,0,1,1.2.5,1.43,1.43,0,0,1,.3,1.1v6.5A6.15,6.15,0,0,0,25.1,26.6ZM3.4,1.8H2.2V3.9H3.4Zm19,28.6h1.2V28.3H22.4Z" transform="translate(-0.1 -0.1)"/><path class="c" d="M25.1,26.6H23.8V20.1a2,2,0,0,0-.3-1.1,1.35,1.35,0,0,0-1.2-.5H11.6c-1,0-2,0-3-.1a6.09,6.09,0,0,1-5-5.8c-.1-2.2,0-4.5,0-6.7V5.7H4.9v6.6a4.75,4.75,0,0,0,4,4.8,3.75,3.75,0,0,0,1.1.1H22.2a2.84,2.84,0,0,1,2.9,2.9v6.5Z" transform="translate(-0.1 -0.1)"/><path class="c" d="M3.4,1.8V3.9H2.2V1.8Z" transform="translate(-0.1 -0.1)"/><path class="c" d="M22.4,30.4V28.3h1.2v2.1Z" transform="translate(-0.1 -0.1)"/></svg>