<svg xmlns="http://www.w3.org/2000/svg" viewBox="0 0 30.68 30.68"><defs><style>.a{fill:#0071bc;stroke:#0071bc;stroke-width:0.25px;}.a,.b{stroke-miterlimit:10;}.b{fill:none;stroke:#fff;stroke-width:0.5px;}.c{fill:#fff;}</style></defs><title>Vendors_3</title><circle class="a" cx="15.34" cy="15.34" r="15.22"/><circle class="b" cx="15.34" cy="15.34" r="14.33"/><path class="c" d="M4.13,19.25,3,12.51H3.5L4,15.83c.15.91.27,1.73.36,2.52h0c.1-.78.24-1.63.39-2.51l.57-3.33h.47L4.61,19.25Z"/><path class="c" d="M8.62,16.09H7.31v2.43H8.78v.73H6.88V12.51H8.7v.73H7.31v2.13H8.62Z"/><path class="c" d="M10,19.25V12.51h.47l1.08,3.41c.25.79.45,1.5.61,2.19h0c0-.9-.05-1.72-.05-2.77V12.51h.41v6.74h-.44l-1.07-3.42c-.24-.75-.46-1.52-.63-2.25h0c0,.85,0,1.66,0,2.78v2.88Z"/><path class="c" d="M14,12.6a3.18,3.18,0,0,1,.92-.14,1.46,1.46,0,0,1,1.37.84,5.07,5.07,0,0,1,.47,2.42,6,6,0,0,1-.48,2.62,1.62,1.62,0,0,1-1.49,1,3.56,3.56,0,0,1-.79-.08Zm.43,6a1.4,1.4,0,0,0,.44.05c.93,0,1.44-1,1.44-2.86,0-1.59-.45-2.6-1.37-2.6a1.33,1.33,0,0,0-.51.09Z"/><path class="c" d="M20.94,15.81c0,2.32-.71,3.55-1.57,3.55S17.86,18,17.86,15.94s.66-3.54,1.56-3.54S20.94,13.81,20.94,15.81Zm-2.62.11c0,1.44.39,2.73,1.08,2.73s1.08-1.27,1.08-2.8c0-1.34-.35-2.74-1.08-2.74S18.32,14.44,18.32,15.92Z"/><path class="c" d="M22.2,12.6a2.38,2.38,0,0,1,.84-.14A1,1,0,0,1,24,13a2.71,2.71,0,0,1,.27,1.28A2,2,0,0,1,23.64,16v0a2,2,0,0,1,.5,1.36c.11.94.19,1.59.26,1.85H24a15.35,15.35,0,0,1-.23-1.61c-.1-.93-.28-1.28-.67-1.31h-.41v2.92H22.2Zm.44,3.07h.44c.47,0,.76-.51.76-1.28s-.31-1.25-.77-1.26a1,1,0,0,0-.43.08Z"/><path class="c" d="M25.53,18.19a1.08,1.08,0,0,0,.78.44c.45,0,.71-.47.71-1.15a1.47,1.47,0,0,0-.64-1.34,2.13,2.13,0,0,1-.89-1.91c0-1.05.44-1.83,1.09-1.83a1,1,0,0,1,.75.33l-.12.71a.91.91,0,0,0-.64-.32c-.46,0-.64.55-.64,1a1.44,1.44,0,0,0,.67,1.3,2.22,2.22,0,0,1,.86,2c0,1-.38,1.94-1.18,1.94a1.16,1.16,0,0,1-.86-.43Z"/></svg>