<svg xmlns="http://www.w3.org/2000/svg" viewBox="0 0 30.68 30.68"><defs><style>.a{fill:#0071bc;stroke:#0071bc;stroke-width:0.25px;}.a,.b,.c{stroke-miterlimit:10;}.b{fill:none;}.b,.c{stroke:#fff;stroke-width:0.5px;}.c{fill:#fff;}</style></defs><title>Vendors_1</title><circle class="a" cx="15.34" cy="15.34" r="15.22"/><circle class="b" cx="15.34" cy="15.34" r="14.33"/><path class="c" d="M5.58,18.89l-1.1-8.42H5l.53,4.15c.14,1.13.27,2.16.36,3.15h0c.09-1,.23-2,.38-3.14l.57-4.16h.47L6.06,18.89Z"/><path class="c" d="M9.59,14.94H8.28v3H9.74v.91H7.85V10.47H9.67v.91H8.28V14H9.59Z"/><path class="c" d="M10.52,18.89V10.47H11l1.08,4.26c.25,1,.44,1.87.6,2.74v0c0-1.12,0-2.15,0-3.46V10.47h.41v8.42h-.44l-1.07-4.27c-.23-.94-.46-1.9-.63-2.81h0c0,1.06,0,2.07,0,3.47v3.6Z"/><path class="c" d="M14,10.58a2.6,2.6,0,0,1,.92-.17,1.46,1.46,0,0,1,1.37,1.05,7.66,7.66,0,0,1,.47,3,9.18,9.18,0,0,1-.48,3.27A1.65,1.65,0,0,1,14.82,19a3,3,0,0,1-.79-.1ZM14.46,18a1.14,1.14,0,0,0,.44.06c.93,0,1.44-1.3,1.44-3.57,0-2-.45-3.25-1.37-3.25a1.14,1.14,0,0,0-.51.11Z"/><path class="c" d="M20.46,14.59c0,2.9-.71,4.44-1.57,4.44s-1.52-1.73-1.52-4.28.67-4.42,1.57-4.42S20.46,12.09,20.46,14.59Zm-2.62.14c0,1.8.39,3.41,1.07,3.41S20,16.55,20,14.64c0-1.67-.35-3.42-1.07-3.42S17.84,12.88,17.84,14.73Z"/><path class="c" d="M21.23,10.58a2,2,0,0,1,.84-.17,1,1,0,0,1,1,.68,4.12,4.12,0,0,1,.27,1.6,2.88,2.88,0,0,1-.64,2.15v0a2.81,2.81,0,0,1,.5,1.7c.11,1.17.19,2,.26,2.31H23c-.06-.24-.13-1-.23-2s-.28-1.6-.67-1.64h-.41v3.65h-.44Zm.44,3.84h.44c.47,0,.76-.64.76-1.6s-.31-1.56-.77-1.58a.79.79,0,0,0-.43.1Z"/><path class="c" d="M24.08,17.57a1,1,0,0,0,.78.55c.44,0,.7-.59.7-1.44A2.06,2.06,0,0,0,24.93,15,2.93,2.93,0,0,1,24,12.62c0-1.31.43-2.29,1.09-2.29a.91.91,0,0,1,.74.41l-.12.89a.85.85,0,0,0-.64-.4c-.46,0-.63.69-.63,1.26a1.94,1.94,0,0,0,.67,1.63A3.08,3.08,0,0,1,26,16.59c0,1.3-.39,2.43-1.18,2.43a1.09,1.09,0,0,1-.86-.54Z"/></svg>